<?xml version="1.0" encoding="UTF-8"?>
<svg width="41px" height="30px" viewBox="0 0 41 30" version="1.1" xmlns="http://www.w3.org/2000/svg" xmlns:xlink="http://www.w3.org/1999/xlink">
    <!-- Generator: Sketch 47 (45396) - http://www.bohemiancoding.com/sketch -->
    <title>ads</title>
    <desc>Created with Sketch.</desc>
    <defs></defs>
    <g id="Page-1" stroke="none" stroke-width="1" fill="none" fill-rule="evenodd">
        <g id="Desktop" transform="translate(-618.000000, -658.000000)" fill-rule="nonzero" fill="#8C9F87">
            <path d="M647.570768,658.000108 C647.376526,658.003136 647.194487,658.094371 647.077135,658.247508 L643.630485,661.655708 L618.457433,668.770536 C618.186466,668.847537 617.999845,669.092776 618,669.371647 L618,676.532013 C618.000345,676.810472 618.186866,677.055126 618.457433,677.132013 L625.741251,679.191513 C625.207245,682.284069 627.107415,685.339069 630.209172,686.214069 C633.308347,687.088458 636.551137,685.48718 637.748582,682.585569 L643.630485,684.247902 L647.077135,687.656125 C647.198219,687.814839 647.388418,687.907101 647.589416,687.904625 C647.773608,687.904211 647.94845,687.824324 648.06818,687.685871 C648.187911,687.547419 648.240612,687.364184 648.21249,687.184125 L648.21249,658.71083 C648.236269,658.539876 648.187542,658.366803 648.077852,658.232616 C647.968163,658.098429 647.807271,658.015067 647.633294,658.00228 C647.612502,658.000519 647.591634,657.999777 647.570768,658.000058 L647.570768,658.000108 Z M646.948791,660.140952 L646.948791,685.76268 L644.593616,683.431958 L644.593616,662.471702 L646.948791,660.140952 L646.948791,660.140952 Z M657.785665,661.004669 C657.62157,661.009399 657.465777,661.077111 657.351268,661.193469 L651.629522,666.851036 C651.394159,667.097337 651.399908,667.484246 651.642486,667.7236 C651.885064,667.962953 652.276225,667.967679 652.524642,667.734258 L658.244194,662.076719 C658.430258,661.896996 658.486008,661.62287 658.384678,661.385958 C658.283348,661.149046 658.045632,660.997733 657.785665,661.004669 L657.785665,661.004669 Z M643.329917,663.042425 L643.329917,682.86118 L619.263699,676.059958 L619.263699,669.843647 L643.329917,663.042425 Z M652.077082,672.326236 C651.849137,672.322931 651.637063,672.441328 651.522115,672.636062 C651.407168,672.830796 651.407168,673.071676 651.522115,673.26641 C651.637063,673.461144 651.849137,673.57954 652.077082,673.576236 L657.798828,673.576236 C658.026773,673.57954 658.238847,673.461144 658.353794,673.26641 C658.468742,673.071676 658.468742,672.830796 658.353794,672.636062 C658.238847,672.441328 658.026773,672.322931 657.798828,672.326236 L652.077082,672.326236 Z M652.070499,677.978402 C651.812756,677.977793 651.580469,678.132083 651.483499,678.368302 C651.386529,678.60452 651.444313,678.87532 651.629521,679.052625 L657.351268,684.71018 C657.508471,684.878725 657.746355,684.948589 657.971072,684.892211 C658.195788,684.835832 658.371253,684.662264 658.428241,684.439981 C658.48523,684.217699 658.414591,683.982395 658.244194,683.826902 L652.524641,678.16718 C652.40531,678.046077 652.241464,677.977969 652.070499,677.978402 L652.070499,677.978402 Z M626.962168,679.536569 L636.526567,682.239458 C635.528865,684.488236 632.997737,685.702125 630.554714,685.012902 C628.110313,684.323347 626.608427,681.969291 626.962168,679.536569 Z" id="ads"></path>
        </g>
    </g>
</svg>