<?xml version="1.0" encoding="UTF-8"?>
<svg width="27px" height="41px" viewBox="0 0 27 41" version="1.1" xmlns="http://www.w3.org/2000/svg" xmlns:xlink="http://www.w3.org/1999/xlink">
    <!-- Generator: Sketch 47 (45396) - http://www.bohemiancoding.com/sketch -->
    <title>delay</title>
    <desc>Created with Sketch.</desc>
    <defs></defs>
    <g id="Page-1" stroke="none" stroke-width="1" fill="none" fill-rule="evenodd">
        <g id="Desktop" transform="translate(-857.000000, -499.000000)" fill-rule="nonzero" fill="#8C9F87">
            <g id="delay" transform="translate(857.000000, 499.000000)">
                <path d="M3.81156923,14.0508414 C3.44436923,14.0508414 3.14695385,14.3545241 3.14695385,14.7294621 C3.14695385,15.1044 3.44603077,15.4080828 3.81156923,15.4080828 L23.4725538,15.4080828 C23.8397538,15.4080828 24.1371692,15.1044 24.1371692,14.7294621 C24.1371692,14.3545241 23.8380923,14.0508414 23.4725538,14.0508414 L3.81156923,14.0508414 Z" id="Shape"></path>
                <path d="M3.81156923,19.2694345 L23.4725538,19.2694345 C23.8397538,19.2694345 24.1371692,18.9657517 24.1371692,18.5908138 C24.1371692,18.2158759 23.8380923,17.9121931 23.4725538,17.9121931 L3.81156923,17.9121931 C3.44436923,17.9121931 3.14695385,18.2158759 3.14695385,18.5908138 C3.14695385,18.9657517 3.44436923,19.2694345 3.81156923,19.2694345 Z" id="Shape"></path>
                <path d="M13.5033231,21.7752414 L3.81156923,21.7752414 C3.44436923,21.7752414 3.14695385,22.0789241 3.14695385,22.4538621 C3.14695385,22.8288 3.44603077,23.1324828 3.81156923,23.1324828 L13.5033231,23.1324828 C13.8705231,23.1324828 14.1679385,22.8288 14.1679385,22.4538621 C14.1679385,22.0789241 13.8705231,21.7752414 13.5033231,21.7752414 Z" id="Shape"></path>
                <path d="M13.5033231,25.6365931 L3.81156923,25.6365931 C3.44436923,25.6365931 3.14695385,25.9402759 3.14695385,26.3152138 C3.14695385,26.6901517 3.44603077,26.9938345 3.81156923,26.9938345 L13.5033231,26.9938345 C13.8705231,26.9938345 14.1679385,26.6901517 14.1679385,26.3152138 C14.1679385,25.9402759 13.8705231,25.6365931 13.5033231,25.6365931 Z" id="Shape"></path>
                <path d="M13.5033231,29.4996414 L3.81156923,29.4996414 C3.44436923,29.4996414 3.14695385,29.8033241 3.14695385,30.1782621 C3.14695385,30.5532 3.44603077,30.8568828 3.81156923,30.8568828 L13.5033231,30.8568828 C13.8705231,30.8568828 14.1679385,30.5532 14.1679385,30.1782621 C14.1679385,29.8033241 13.8705231,29.4996414 13.5033231,29.4996414 Z" id="Shape"></path>
                <path d="M13.5033231,33.3626897 L3.81156923,33.3626897 C3.44436923,33.3626897 3.14695385,33.6663724 3.14695385,34.0413103 C3.14695385,34.4162483 3.44603077,34.719931 3.81156923,34.719931 L13.5033231,34.719931 C13.8705231,34.719931 14.1679385,34.4162483 14.1679385,34.0413103 C14.1679385,33.6663724 13.8705231,33.3626897 13.5033231,33.3626897 Z" id="Shape"></path>
                <path d="M22.8312,25.5415862 C22.8312,25.9165241 23.1302769,26.2202069 23.4958154,26.2202069 C23.8613538,26.2202069 24.1604308,25.9165241 24.1604308,25.5415862 C24.1604308,23.877269 22.7331692,22.4979724 20.8606154,22.2095586 L20.8606154,21.878731 C20.8606154,21.5037931 20.5615385,21.2001103 20.196,21.2001103 C19.8304615,21.2001103 19.5313846,21.5037931 19.5313846,21.878731 L19.5313846,22.1993793 C17.6056615,22.450469 16.1235692,23.8450345 16.1235692,25.5398897 C16.1235692,27.2330483 17.6056615,28.6293103 19.5313846,28.8804 L19.5313846,32.9215862 C18.3998769,32.6806759 17.5624615,31.9019586 17.5624615,30.9688552 C17.5624615,30.5939172 17.2633846,30.2902345 16.8978462,30.2902345 C16.5323077,30.2902345 16.2332308,30.5939172 16.2332308,30.9688552 C16.2332308,32.6314759 17.6588308,34.012469 19.5313846,34.3008828 L19.5313846,34.6300138 C19.5313846,35.0049517 19.8304615,35.3086345 20.196,35.3086345 C20.5615385,35.3086345 20.8606154,35.0049517 20.8606154,34.6300138 L20.8606154,34.3093655 C22.7863385,34.0582759 24.2700923,32.6637103 24.2700923,30.9688552 C24.2700923,29.274 22.7863385,27.8777379 20.8606154,27.6283448 L20.8606154,23.5871586 C21.9937846,23.828069 22.8312,24.6084828 22.8312,25.5415862 Z M17.4544615,25.5415862 C17.4544615,24.5796414 18.3433846,23.7737793 19.5313846,23.5634069 L19.5313846,27.5197655 C18.3433846,27.3076966 17.4544615,26.503531 17.4544615,25.5415862 Z M22.9408615,30.9688552 C22.9408615,31.9324966 22.0502769,32.7366621 20.8622769,32.9470345 L20.8622769,28.9889793 C22.0502769,29.2010483 22.9408615,30.0069103 22.9408615,30.9688552 Z" id="Shape"></path>
                <path d="M26.0944615,0.0763448276 L9.99249231,0.0763448276 C9.90276923,0.0763448276 9.81636923,0.0950068966 9.73495385,0.128937931 C9.67347692,0.154386207 9.62196923,0.1968 9.57212308,0.239213793 C9.55716923,0.252786207 9.53556923,0.259572414 9.52061538,0.274841379 L0.850707692,9.12914483 C0.837415385,9.14271724 0.830769231,9.16137931 0.819138462,9.17664828 C0.775938462,9.22924138 0.7344,9.28353103 0.707815385,9.348 C0.674584615,9.42943448 0.656307692,9.51765517 0.656307692,9.60926897 L0.656307692,39.9639724 C0.656307692,40.1997931 0.775938462,40.4186483 0.972,40.5408 C1.1664,40.6646483 1.41230769,40.6748276 1.61833846,40.5713379 L3.79993846,39.4584 L5.98153846,40.5713379 C6.16596923,40.6663448 6.39027692,40.6663448 6.57470769,40.5713379 L8.75630769,39.4584 L10.9362462,40.5713379 C11.1206769,40.6663448 11.3449846,40.6663448 11.5294154,40.5713379 L13.7076923,39.4567034 L15.8892923,40.5696414 C15.9823385,40.6171448 16.0836923,40.6408966 16.1867077,40.6408966 C16.2897231,40.6408966 16.3910769,40.6171448 16.4841231,40.5696414 L18.6657231,39.4567034 L20.8456615,40.5696414 C21.0300923,40.6646483 21.2544,40.6646483 21.4388308,40.5696414 L23.6204308,39.4567034 L25.8020308,40.5696414 C26.0097231,40.6748276 26.2523077,40.6629517 26.4483692,40.5391034 C26.6444308,40.4152552 26.7640615,40.1964 26.7640615,39.9622759 L26.7640615,0.754965517 C26.7590769,0.380027586 26.4616615,0.0763448276 26.0944615,0.0763448276 Z M9.32621538,2.39383448 L9.32621538,8.93064828 L2.92596923,8.93064828 L9.32621538,2.39383448 Z M25.4298462,38.8646069 L23.9145231,38.0909793 C23.7267692,37.9959724 23.5057846,37.9959724 23.3213538,38.0909793 L21.1397538,39.2039172 L18.9598154,38.0909793 C18.7753846,37.9959724 18.5510769,37.9959724 18.3666462,38.0909793 L16.1850462,39.2039172 L14.0034462,38.0909793 C13.9120615,38.0434759 13.8107077,38.0197241 13.7076923,38.0197241 C13.6046769,38.0197241 13.5033231,38.0434759 13.4102769,38.0909793 L11.2286769,39.2039172 L9.04873846,38.0909793 C8.86430769,37.9959724 8.64,37.9959724 8.45556923,38.0909793 L6.27396923,39.2039172 L4.09236923,38.0909793 C3.90793846,37.9959724 3.68363077,37.9959724 3.4992,38.0909793 L1.98387692,38.8663034 L1.98387692,10.2861931 L9.98916923,10.2861931 C10.3563692,10.2861931 10.6537846,9.98251034 10.6537846,9.60757241 L10.6537846,1.43358621 L25.4265231,1.43358621 L25.4265231,38.8646069 L25.4298462,38.8646069 Z" id="Shape"></path>
            </g>
        </g>
    </g>
</svg>