<?xml version="1.0" encoding="UTF-8"?>
<svg width="41px" height="34px" viewBox="0 0 41 34" version="1.1" xmlns="http://www.w3.org/2000/svg" xmlns:xlink="http://www.w3.org/1999/xlink">
    <!-- Generator: Sketch 47 (45396) - http://www.bohemiancoding.com/sketch -->
    <title>design</title>
    <desc>Created with Sketch.</desc>
    <defs></defs>
    <g id="Page-1" stroke="none" stroke-width="1" fill="none" fill-rule="evenodd">
        <g id="Desktop" transform="translate(-850.000000, -656.000000)" fill-rule="nonzero" fill="#8C9F87">
            <g id="design" transform="translate(850.000000, 656.000000)">
                <path d="M15.5517241,12.0416667 C15.1590038,12.0416667 14.8448276,12.3075782 14.8448276,12.6399676 L14.8448276,31.9850324 C14.8448276,32.3174218 15.1590038,32.5833333 15.5517241,32.5833333 C15.9444444,32.5833333 16.2586207,32.3174218 16.2586207,31.9850324 L16.2586207,12.6399676 C16.1800766,12.3075782 15.9444444,12.0416667 15.5517241,12.0416667 Z" id="Shape"></path>
                <path d="M20.5,9.20833333 C20.1072797,9.20833333 19.7931034,9.47780797 19.7931034,9.81465127 L19.7931034,33.3936821 C19.7931034,33.7305254 20.1072797,34 20.5,34 C20.8927203,34 21.2068966,33.7305254 21.2068966,33.3936821 L21.2068966,9.81465127 C21.2068966,9.41043931 20.8927203,9.20833333 20.5,9.20833333 Z" id="Shape"></path>
                <path d="M9.89655172,16.2916667 C9.50383142,16.2916667 9.18965517,16.5540123 9.18965517,16.8819444 L9.18965517,29.8680556 C9.18965517,30.1959877 9.50383142,30.4583333 9.89655172,30.4583333 C10.289272,30.4583333 10.6034483,30.1959877 10.6034483,29.8680556 L10.6034483,16.816358 C10.6034483,16.5540123 10.289272,16.2916667 9.89655172,16.2916667 Z" id="Shape"></path>
                <path d="M26.1551724,12.0416667 C25.7624521,12.0416667 25.4482759,12.3075782 25.4482759,12.6399676 L25.4482759,31.9850324 C25.4482759,32.3174218 25.7624521,32.5833333 26.1551724,32.5833333 C26.5478927,32.5833333 26.862069,32.3174218 26.862069,31.9850324 L26.862069,12.6399676 C26.862069,12.3075782 26.5478927,12.0416667 26.1551724,12.0416667 Z" id="Shape"></path>
                <path d="M31.1034483,16.2916667 C30.710728,16.2916667 30.3965517,16.5540123 30.3965517,16.8819444 L30.3965517,29.8680556 C30.3965517,30.1959877 30.710728,30.4583333 31.1034483,30.4583333 C31.4961686,30.4583333 31.8103448,30.1959877 31.8103448,29.8680556 L31.8103448,16.816358 C31.8103448,16.5540123 31.4961686,16.2916667 31.1034483,16.2916667 Z" id="Shape"></path>
                <path d="M25.5419609,7.79166667 C25.882634,7.79166667 26.1551724,7.47685185 26.1551724,7.08333333 C26.1551724,6.68981481 25.882634,6.375 25.5419609,6.375 L15.4580391,6.375 C15.117366,6.375 14.8448276,6.68981481 14.8448276,7.08333333 C14.8448276,7.47685185 15.117366,7.79166667 15.4580391,7.79166667 L25.5419609,7.79166667 Z" id="Shape"></path>
                <path d="M39.5326085,3.11232663 C37.3321911,-0.27857522 31.59777,-0.0751211089 28.4638422,0.0605149652 C28.0637663,0.0605149652 27.7970491,0.0605149652 27.5303318,0.0605149652 C25.2632351,0.0605149652 21.1291176,0.128333002 20.595683,0.128333002 C20.0622485,0.128333002 15.6614138,0.0605149652 13.4609964,0.0605149652 C13.1942791,0.0605149652 12.8608825,0.0605149652 12.527486,0.0605149652 C9.46023747,-0.0751211089 3.65913708,-0.27857522 1.45871969,3.11232663 C-0.474980443,6.09632026 -0.474980443,9.14813193 1.39204037,11.4539452 C2.79230598,13.1493961 5.05940269,14.1666667 7.12646145,14.1666667 C7.85993391,14.1666667 8.66008569,14.0310306 9.32687884,13.7597584 C11.4606169,12.878124 12.7942032,10.9792189 12.9942412,8.67340567 C13.1275998,6.77450063 12.3941273,5.01123167 11.060541,4.12959719 C9.46023747,3.11232663 7.39317871,3.11232663 5.92623378,4.12959719 C4.72600612,4.94341363 4.25925091,6.1641383 4.45928886,7.58831708 C4.79268543,9.48722211 6.05959241,9.89413033 6.59302693,9.96194837 C7.59321665,10.0975844 8.66008569,9.62285819 9.06016158,8.80904174 C9.46023747,7.9952253 8.92680295,7.18140885 8.52672706,6.84231867 C8.32668912,6.63886456 7.92661323,6.63886456 7.72657528,6.84231867 C7.52653734,7.11359082 7.52653734,7.452681 7.72657528,7.65613511 C7.85993391,7.79177119 8.05997186,8.13086137 7.99329254,8.26649745 C7.85993391,8.60558763 7.32649939,8.87685978 6.72638556,8.80904174 C6.12627173,8.7412237 5.72619584,8.26649745 5.59283721,7.38486296 C5.39279926,6.1641383 6.05959241,5.48595793 6.52634762,5.14686774 C7.59321665,4.40086933 9.19352021,4.40086933 10.3937479,5.21468578 C11.3939376,5.82504811 11.9273721,7.18140885 11.7940135,8.67340567 C11.6606549,10.5044927 10.5271065,11.9964895 8.86012364,12.7424879 C6.85974419,13.6241224 3.92585434,12.7424879 2.32555078,10.7757648 C0.791926539,8.87685978 0.858605854,6.43541045 2.45890941,3.85832504 C4.32593023,1.00996748 9.66027541,1.21342159 12.4608066,1.34905767 C12.8608825,1.34905767 13.1942791,1.34905767 13.4609964,1.34905767 C15.6614138,1.34905767 19.9288899,1.41687571 20.595683,1.41687571 L20.595683,1.41687571 C20.595683,1.41687571 20.595683,1.41687571 20.6623624,1.41687571 C20.7290417,1.41687571 20.7290417,1.41687571 20.7290417,1.41687571 L20.7290417,1.41687571 C21.3958348,1.41687571 25.3965937,1.34905767 27.5970111,1.34905767 C27.8637284,1.34905767 28.1971249,1.34905767 28.5972008,1.34905767 C31.4644114,1.21342159 36.7987566,1.00996748 38.5990981,3.85832504 C40.2660809,6.43541045 40.2660809,8.87685978 38.7324567,10.7757648 C37.1321531,12.7424879 34.1982633,13.6241224 32.1978838,12.7424879 C30.530901,11.9964895 29.3973526,10.5044927 29.263994,8.67340567 C29.1306353,7.18140885 29.6640699,5.89286615 30.6642596,5.21468578 C31.8644873,4.46868737 33.4647908,4.40086933 34.5316599,5.14686774 C34.9984151,5.48595793 35.7318875,6.1641383 35.4651703,7.38486296 C35.3318116,8.19867941 34.9317357,8.67340567 34.3316219,8.80904174 C33.7981874,8.87685978 33.2647529,8.60558763 33.0647149,8.26649745 C32.9980356,8.13086137 33.1980736,7.85958922 33.3314322,7.65613511 C33.5981494,7.452681 33.5981494,7.04577278 33.3314322,6.84231867 C33.1313942,6.57104652 32.7313184,6.57104652 32.5312804,6.84231867 C32.1312045,7.18140885 31.59777,8.06304333 31.9978459,8.80904174 C32.3979218,9.62285819 33.4647908,10.0975844 34.4649805,9.96194837 C34.9984151,9.89413033 36.265322,9.48722211 36.5987186,7.58831708 C36.8654359,6.23195633 36.3320014,4.94341363 35.1317737,4.12959719 C33.6648288,3.11232663 31.5310907,3.11232663 29.9974664,4.12959719 C28.6638801,5.01123167 27.9304077,6.77450063 28.0637663,8.67340567 C28.2638043,10.9792189 29.5973906,12.878124 31.7311286,13.7597584 C32.3979218,14.0310306 33.1313942,14.1666667 33.931546,14.1666667 C35.9986048,14.1666667 38.2657015,13.1493961 39.6659671,11.4539452 C41.4663086,9.14813193 41.4663086,6.09632026 39.5326085,3.11232663 Z" id="Shape"></path>
            </g>
        </g>
    </g>
</svg>