<?xml version="1.0" encoding="UTF-8"?>
<svg width="42px" height="42px" viewBox="0 0 42 42" version="1.1" xmlns="http://www.w3.org/2000/svg" xmlns:xlink="http://www.w3.org/1999/xlink">
    <!-- Generator: Sketch 47 (45396) - http://www.bohemiancoding.com/sketch -->
    <title>identity</title>
    <desc>Created with Sketch.</desc>
    <defs></defs>
    <g id="Page-1" stroke="none" stroke-width="1" fill="none" fill-rule="evenodd">
        <g id="Desktop" transform="translate(-618.000000, -499.000000)" fill-rule="nonzero" fill="#8C9F87">
            <g id="apron" transform="translate(618.000000, 499.000000)">
                <path d="M20.9665314,0 C17.3377314,0 14.448,2.9232 14.448,6.552 L14.448,10.8865314 C14.0112,15.0193314 12.1968,18.8833314 9.24,21.8065314 L7.52653138,23.4865314 L0.84,23.4865314 C0.3696,23.4865314 0,23.8561314 0,24.3265314 C0,24.7969314 0.3696,25.1665314 0.84,25.1665314 L7.056,25.1665314 L7.056,41.16 C7.056,41.6304 7.4256,42 7.896,42 L34.104,42 C34.5744,42 34.944,41.6304 34.944,41.16 L34.944,25.2 L41.16,25.2 C41.6304,25.2 42,24.8304 42,24.36 C42,23.8896 41.6304,23.52 41.16,23.52 L34.44,23.52 L32.7265314,21.84 C29.8033314,18.9168 27.9553314,15.0193314 27.5185314,10.8865314 L27.5185314,6.552 C27.5185314,2.9232 24.5953314,0 20.9665314,0 Z M21,1.68 C23.688,1.68 25.872,3.864 25.872,6.552 L25.872,10.08 L16.128,10.08 L16.128,6.552 C16.128,3.864 18.312,1.68 21,1.68 Z M16.0610624,11.76 L26.0065314,11.76 C26.6113314,15.9936 28.5598686,19.9584 31.6174686,23.016 L33.3309379,24.696 L33.3309379,40.32 L8.80293758,40.32 L8.80293758,24.696 L10.4494686,23.016 C13.4734686,19.992 15.4562624,15.9936 16.0610624,11.76 Z M16.632,26.88 C16.1616,26.88 15.792,27.2496 15.792,27.72 L15.792,34.44 C15.792,34.9104 16.1616,35.28 16.632,35.28 L25.368,35.28 C25.8384,35.28 26.208,34.9104 26.208,34.44 L26.208,27.72 C26.208,27.2496 25.8384,26.88 25.368,26.88 C24.8976,26.88 24.528,27.2496 24.528,27.72 L24.528,33.6 L17.472,33.6 L17.472,27.72 C17.472,27.2496 17.1024,26.88 16.632,26.88 Z" id="identity"></path>
            </g>
        </g>
    </g>
</svg>