<?xml version="1.0" encoding="UTF-8"?>
<svg width="27px" height="38px" viewBox="0 0 27 38" version="1.1" xmlns="http://www.w3.org/2000/svg" xmlns:xlink="http://www.w3.org/1999/xlink">
    <!-- Generator: Sketch 47 (45396) - http://www.bohemiancoding.com/sketch -->
    <title>place</title>
    <desc>Created with Sketch.</desc>
    <defs></defs>
    <g id="Page-1" stroke="none" stroke-width="1" fill="none" fill-rule="evenodd">
        <g id="Desktop" transform="translate(-1081.000000, -347.000000)" fill-rule="nonzero" fill="#8C9F87">
            <g id="place" transform="translate(1081.000000, 347.000000)">
                <path d="M24.8628051,6.36786295 C21.0263125,0.232944938 13.1945228,-1.79814972 6.96669876,1.72669058 C0.73887474,5.25153087 -1.74417158,13.1206437 1.29278988,19.7080825 C1.56004874,20.2722073 1.8665897,20.8159344 2.21004189,21.3350584 L12.8424815,37.6441403 C12.9877487,37.8665051 13.2318558,38 13.4932022,38 C13.7545486,38 13.9986557,37.8665051 14.1439229,37.6441403 L24.7091294,21.4235344 C25.106219,20.8296044 25.4578401,20.2051336 25.7608477,19.5557071 C27.6889092,15.2926324 27.3500167,10.3159624 24.8628051,6.36786295 L24.8628051,6.36786295 Z M24.4498016,18.9560362 C24.1723348,19.5376831 23.8512143,20.0964297 23.4893283,20.6272501 L13.4956034,35.9876724 L3.41063354,20.5141974 C3.10491991,20.0549141 2.8320735,19.5735932 2.59423122,19.0740042 C0.213841854,13.9051463 1.61279347,7.73965623 5.97514799,4.17355424 C10.3375025,0.607452249 16.5215174,0.574080625 20.9203681,4.09290336 C25.3192187,7.61172609 26.7816105,13.7617751 24.454604,18.9560362 L24.4498016,18.9560362 Z" id="Shape"></path>
                <path d="M13.5,9.14814815 C11.0147186,9.14814815 9,11.1960309 9,13.7222222 C9,16.2484136 11.0147186,18.2962963 13.5,18.2962963 C15.9852814,18.2962963 18,16.2484136 18,13.7222222 C17.9974001,11.1971263 15.9842037,9.15079085 13.5,9.14814815 L13.5,9.14814815 Z M13.5,16.8531136 C11.7962536,16.8531136 10.4150943,15.4492192 10.4150943,13.7174276 C10.4150943,11.985636 11.7962536,10.5817416 13.5,10.5817416 C15.2037464,10.5817416 16.5849057,11.985636 16.5849057,13.7174276 C16.5849057,14.5490632 16.2598897,15.3466372 15.6813577,15.9346924 C15.1028257,16.5227476 14.3181679,16.8531136 13.5,16.8531136 L13.5,16.8531136 Z" id="Shape"></path>
            </g>
        </g>
    </g>
</svg>