<?xml version="1.0" encoding="UTF-8"?>
<svg width="109px" height="20px" viewBox="0 0 109 20" version="1.1" xmlns="http://www.w3.org/2000/svg" xmlns:xlink="http://www.w3.org/1999/xlink">
    <!-- Generator: Sketch 47 (45396) - http://www.bohemiancoding.com/sketch -->
    <title>30 000 ₽</title>
    <desc>Created with Sketch.</desc>
    <defs></defs>
    <g id="Page-1" stroke="none" stroke-width="1" fill="none" fill-rule="evenodd">
        <g id="Desktop" transform="translate(-577.000000, -356.000000)" fill="#8C9F87">
            <path d="M588.86,356.8 C589.258669,356.8 589.458,356.999331 589.458,357.398 L589.458,357.788 C589.458,357.892001 589.436334,357.983 589.393,358.061 C589.349666,358.139 589.302,358.212666 589.25,358.282 L583.764,364.704 L584.284,364.704 C585.168004,364.704 585.97833,364.807999 586.715,365.016 C587.45167,365.224001 588.079997,365.540331 588.6,365.965 C589.120003,366.389669 589.522999,366.926997 589.809,367.577 C590.095001,368.227003 590.238,368.985329 590.238,369.852 C590.238,370.718671 590.082002,371.485663 589.77,372.153 C589.457998,372.820337 589.024669,373.383664 588.47,373.843 C587.915331,374.302336 587.25667,374.653332 586.494,374.896 C585.73133,375.138668 584.908004,375.26 584.024,375.26 C583.053328,375.26 582.18667,375.134335 581.424,374.883 C580.66133,374.631665 580.015669,374.298002 579.487,373.882 C578.958331,373.465998 578.551001,372.993669 578.265,372.465 C577.978999,371.936331 577.827333,371.386003 577.81,370.814 C577.81,370.657999 577.861999,370.536667 577.966,370.45 C578.070001,370.363333 578.199999,370.32 578.356,370.32 L578.72,370.32 C578.858667,370.32 578.992999,370.354666 579.123,370.424 C579.253001,370.493334 579.352666,370.657999 579.422,370.918 C579.560667,371.490003 579.790332,371.953665 580.111,372.309 C580.431668,372.664335 580.804331,372.945999 581.229,373.154 C581.653669,373.362001 582.108664,373.505 582.594,373.583 C583.079336,373.661 583.555998,373.7 584.024,373.7 C584.700003,373.7 585.315331,373.622001 585.87,373.466 C586.424669,373.309999 586.905665,373.071668 587.313,372.751 C587.720335,372.430332 588.036666,372.027336 588.262,371.542 C588.487334,371.056664 588.6,370.493337 588.6,369.852 C588.6,368.569327 588.214337,367.650669 587.443,367.096 C586.671663,366.541331 585.618673,366.264 584.284,366.264 L581.996,366.264 C581.614665,366.264 581.424,366.073335 581.424,365.692 L581.424,365.302 C581.424,365.163333 581.445666,365.046334 581.489,364.951 C581.532334,364.855666 581.588666,364.764667 581.658,364.678 L587.014,358.36 L579.162,358.36 C578.780665,358.36 578.59,358.169335 578.59,357.788 L578.59,357.398 C578.59,356.999331 578.780665,356.8 579.162,356.8 L588.86,356.8 Z M593.332,363.716 C593.349333,362.762662 593.461999,361.852671 593.67,360.986 C593.878001,360.119329 594.224664,359.35667 594.71,358.698 C595.195336,358.03933 595.832329,357.515002 596.621,357.125 C597.409671,356.734998 598.393327,356.54 599.572,356.54 C600.750673,356.54 601.734329,356.734998 602.523,357.125 C603.311671,357.515002 603.944331,358.03933 604.421,358.698 C604.897669,359.35667 605.244332,360.119329 605.461,360.986 C605.677668,361.852671 605.794667,362.762662 605.812,363.716 C605.846667,365.206674 605.846667,366.66266 605.812,368.084 C605.777333,369.037338 605.656001,369.947329 605.448,370.814 C605.239999,371.680671 604.897669,372.44333 604.421,373.102 C603.944331,373.76067 603.311671,374.284998 602.523,374.675 C601.734329,375.065002 600.750673,375.26 599.572,375.26 C598.393327,375.26 597.409671,375.065002 596.621,374.675 C595.832329,374.284998 595.199669,373.76067 594.723,373.102 C594.246331,372.44333 593.899668,371.680671 593.683,370.814 C593.466332,369.947329 593.349333,369.037338 593.332,368.084 C593.297333,366.66266 593.297333,365.206674 593.332,363.716 Z M604.174,363.846 C604.139333,362.095325 603.745004,360.700005 602.991,359.66 C602.236996,358.619995 601.097341,358.1 599.572,358.1 C598.029326,358.1 596.885337,358.619995 596.14,359.66 C595.394663,360.700005 595.004667,362.095325 594.97,363.846 C594.952667,364.574004 594.944,365.25433 594.944,365.887 C594.944,366.51967 594.952667,367.208663 594.97,367.954 C595.004667,369.739342 595.394663,371.143328 596.14,372.166 C596.885337,373.188672 598.029326,373.7 599.572,373.7 C601.114674,373.7 602.258663,373.188672 603.004,372.166 C603.749337,371.143328 604.139333,369.739342 604.174,367.954 C604.191333,367.208663 604.2,366.51967 604.2,365.887 C604.2,365.25433 604.191333,364.574004 604.174,363.846 Z M616.056,363.716 C616.073333,362.762662 616.185999,361.852671 616.394,360.986 C616.602001,360.119329 616.948664,359.35667 617.434,358.698 C617.919336,358.03933 618.556329,357.515002 619.345,357.125 C620.133671,356.734998 621.117327,356.54 622.296,356.54 C623.474673,356.54 624.458329,356.734998 625.247,357.125 C626.035671,357.515002 626.668331,358.03933 627.145,358.698 C627.621669,359.35667 627.968332,360.119329 628.185,360.986 C628.401668,361.852671 628.518667,362.762662 628.536,363.716 C628.570667,365.206674 628.570667,366.66266 628.536,368.084 C628.501333,369.037338 628.380001,369.947329 628.172,370.814 C627.963999,371.680671 627.621669,372.44333 627.145,373.102 C626.668331,373.76067 626.035671,374.284998 625.247,374.675 C624.458329,375.065002 623.474673,375.26 622.296,375.26 C621.117327,375.26 620.133671,375.065002 619.345,374.675 C618.556329,374.284998 617.923669,373.76067 617.447,373.102 C616.970331,372.44333 616.623668,371.680671 616.407,370.814 C616.190332,369.947329 616.073333,369.037338 616.056,368.084 C616.021333,366.66266 616.021333,365.206674 616.056,363.716 Z M626.898,363.846 C626.863333,362.095325 626.469004,360.700005 625.715,359.66 C624.960996,358.619995 623.821341,358.1 622.296,358.1 C620.753326,358.1 619.609337,358.619995 618.864,359.66 C618.118663,360.700005 617.728667,362.095325 617.694,363.846 C617.676667,364.574004 617.668,365.25433 617.668,365.887 C617.668,366.51967 617.676667,367.208663 617.694,367.954 C617.728667,369.739342 618.118663,371.143328 618.864,372.166 C619.609337,373.188672 620.753326,373.7 622.296,373.7 C623.838674,373.7 624.982663,373.188672 625.728,372.166 C626.473337,371.143328 626.863333,369.739342 626.898,367.954 C626.915333,367.208663 626.924,366.51967 626.924,365.887 C626.924,365.25433 626.915333,364.574004 626.898,363.846 Z M632.072,363.716 C632.089333,362.762662 632.201999,361.852671 632.41,360.986 C632.618001,360.119329 632.964664,359.35667 633.45,358.698 C633.935336,358.03933 634.572329,357.515002 635.361,357.125 C636.149671,356.734998 637.133327,356.54 638.312,356.54 C639.490673,356.54 640.474329,356.734998 641.263,357.125 C642.051671,357.515002 642.684331,358.03933 643.161,358.698 C643.637669,359.35667 643.984332,360.119329 644.201,360.986 C644.417668,361.852671 644.534667,362.762662 644.552,363.716 C644.586667,365.206674 644.586667,366.66266 644.552,368.084 C644.517333,369.037338 644.396001,369.947329 644.188,370.814 C643.979999,371.680671 643.637669,372.44333 643.161,373.102 C642.684331,373.76067 642.051671,374.284998 641.263,374.675 C640.474329,375.065002 639.490673,375.26 638.312,375.26 C637.133327,375.26 636.149671,375.065002 635.361,374.675 C634.572329,374.284998 633.939669,373.76067 633.463,373.102 C632.986331,372.44333 632.639668,371.680671 632.423,370.814 C632.206332,369.947329 632.089333,369.037338 632.072,368.084 C632.037333,366.66266 632.037333,365.206674 632.072,363.716 Z M642.914,363.846 C642.879333,362.095325 642.485004,360.700005 641.731,359.66 C640.976996,358.619995 639.837341,358.1 638.312,358.1 C636.769326,358.1 635.625337,358.619995 634.88,359.66 C634.134663,360.700005 633.744667,362.095325 633.71,363.846 C633.692667,364.574004 633.684,365.25433 633.684,365.887 C633.684,366.51967 633.692667,367.208663 633.71,367.954 C633.744667,369.739342 634.134663,371.143328 634.88,372.166 C635.625337,373.188672 636.769326,373.7 638.312,373.7 C639.854674,373.7 640.998663,373.188672 641.744,372.166 C642.489337,371.143328 642.879333,369.739342 642.914,367.954 C642.931333,367.208663 642.94,366.51967 642.94,365.887 C642.94,365.25433 642.931333,364.574004 642.914,363.846 Z M648.088,363.716 C648.105333,362.762662 648.217999,361.852671 648.426,360.986 C648.634001,360.119329 648.980664,359.35667 649.466,358.698 C649.951336,358.03933 650.588329,357.515002 651.377,357.125 C652.165671,356.734998 653.149327,356.54 654.328,356.54 C655.506673,356.54 656.490329,356.734998 657.279,357.125 C658.067671,357.515002 658.700331,358.03933 659.177,358.698 C659.653669,359.35667 660.000332,360.119329 660.217,360.986 C660.433668,361.852671 660.550667,362.762662 660.568,363.716 C660.602667,365.206674 660.602667,366.66266 660.568,368.084 C660.533333,369.037338 660.412001,369.947329 660.204,370.814 C659.995999,371.680671 659.653669,372.44333 659.177,373.102 C658.700331,373.76067 658.067671,374.284998 657.279,374.675 C656.490329,375.065002 655.506673,375.26 654.328,375.26 C653.149327,375.26 652.165671,375.065002 651.377,374.675 C650.588329,374.284998 649.955669,373.76067 649.479,373.102 C649.002331,372.44333 648.655668,371.680671 648.439,370.814 C648.222332,369.947329 648.105333,369.037338 648.088,368.084 C648.053333,366.66266 648.053333,365.206674 648.088,363.716 Z M658.93,363.846 C658.895333,362.095325 658.501004,360.700005 657.747,359.66 C656.992996,358.619995 655.853341,358.1 654.328,358.1 C652.785326,358.1 651.641337,358.619995 650.896,359.66 C650.150663,360.700005 649.760667,362.095325 649.726,363.846 C649.708667,364.574004 649.7,365.25433 649.7,365.887 C649.7,366.51967 649.708667,367.208663 649.726,367.954 C649.760667,369.739342 650.150663,371.143328 650.896,372.166 C651.641337,373.188672 652.785326,373.7 654.328,373.7 C655.870674,373.7 657.014663,373.188672 657.76,372.166 C658.505337,371.143328 658.895333,369.739342 658.93,367.954 C658.947333,367.208663 658.956,366.51967 658.956,365.887 C658.956,365.25433 658.947333,364.574004 658.93,363.846 Z M672.866,366.004 L672.866,357.398 C672.866,356.999331 673.056665,356.8 673.438,356.8 L679.756,356.8 C681.576009,356.8 683.027661,357.254995 684.111,358.165 C685.194339,359.075005 685.736,360.413991 685.736,362.182 C685.736,363.950009 685.194339,365.288995 684.111,366.199 C683.027661,367.109005 681.576009,367.564 679.756,367.564 L674.504,367.564 L674.504,369.124 L680.198,369.124 C680.579335,369.124 680.77,369.314665 680.77,369.696 L680.77,370.112 C680.77,370.493335 680.579335,370.684 680.198,370.684 L674.504,370.684 L674.504,374.428 C674.504,374.809335 674.304669,375 673.906,375 L673.438,375 C673.056665,375 672.866,374.809335 672.866,374.428 L672.866,370.684 L670.838,370.684 C670.456665,370.684 670.266,370.493335 670.266,370.112 L670.266,369.696 C670.266,369.314665 670.456665,369.124 670.838,369.124 L672.866,369.124 L672.866,367.564 L670.838,367.564 C670.456665,367.564 670.266,367.373335 670.266,366.992 L670.266,366.576 C670.266,366.194665 670.456665,366.004 670.838,366.004 L672.866,366.004 Z M674.504,366.004 L679.626,366.004 C681.151341,366.004 682.277996,365.679003 683.006,365.029 C683.734004,364.378997 684.098,363.430006 684.098,362.182 C684.098,360.933994 683.734004,359.985003 683.006,359.335 C682.277996,358.684997 681.151341,358.36 679.626,358.36 L674.504,358.36 L674.504,366.004 Z" id="30-000-₽"></path>
        </g>
    </g>
</svg>