<?xml version="1.0" encoding="UTF-8"?>
<svg width="39px" height="39px" viewBox="0 0 39 39" version="1.1" xmlns="http://www.w3.org/2000/svg" xmlns:xlink="http://www.w3.org/1999/xlink">
    <!-- Generator: Sketch 47 (45396) - http://www.bohemiancoding.com/sketch -->
    <title>ready</title>
    <desc>Created with Sketch.</desc>
    <defs></defs>
    <g id="Page-1" stroke="none" stroke-width="1" fill="none" fill-rule="evenodd">
        <g id="Desktop" transform="translate(-1075.000000, -656.000000)" fill-rule="nonzero" fill="#8C9F87">
            <path d="M1110.1,663.8 C1111.39012,663.8 1112.44,664.84988 1112.44,666.14 C1112.44,666.57056 1112.78866,666.92 1113.22,666.92 C1113.65134,666.92 1114,666.57056 1114,666.14 L1114,661.46 C1114,661.2143 1113.88456,660.98342 1113.688,660.836 L1107.448,656.156 C1107.31306,656.0546 1107.14926,656 1106.98,656 L1082.02,656 C1081.85152,656 1081.68694,656.0546 1081.552,656.156 L1075.312,660.836 C1075.11544,660.98342 1075,661.2143 1075,661.46 L1075,666.1361 C1075,666.56666 1075.34866,666.9161 1075.78,666.9161 L1075.78,666.9161 C1076.21056,666.9161 1076.56,666.56744 1076.56,666.13688 C1076.56156,664.84832 1077.61144,663.8 1078.9,663.8 C1080.19012,663.8 1081.24,664.84988 1081.24,666.14 L1081.24,679.4 L1075.78,679.4 C1075.34944,679.4 1075,679.74866 1075,680.18 L1075,689.54 C1075,689.97134 1075.34944,690.32 1075.78,690.32 L1078.1824,690.32 C1078.56304,692.96186 1080.8344,695 1083.58,695 C1086.3256,695 1088.59696,692.96186 1088.9776,690.32 L1100.0224,690.32 C1100.40304,692.96186 1102.67518,695 1105.42,695 C1108.16482,695 1110.43696,692.96186 1110.8176,690.32 L1113.22,690.32 C1113.65134,690.32 1114,689.97134 1114,689.54 L1114,680.18 C1114,679.74866 1113.65134,679.4 1113.22,679.4 L1107.76,679.4 L1107.76,666.14 C1107.76,664.84988 1108.80988,663.8 1110.1,663.8 Z M1078.9,662.24 C1078.02328,662.24 1077.21286,662.53172 1076.56,663.02156 L1076.56,661.85 L1082.27974,657.56 L1106.71948,657.56 L1112.44,661.85 L1112.44,663.02156 C1111.78792,662.53172 1110.9775,662.24 1110.1,662.24 C1108.82548,662.24 1107.69214,662.85464 1106.98,663.80234 C1106.26786,662.85464 1105.13452,662.24 1103.86,662.24 C1102.58548,662.24 1101.45214,662.85464 1100.74,663.80234 C1100.02786,662.85464 1098.89452,662.24 1097.62,662.24 C1096.34548,662.24 1095.21214,662.85464 1094.5,663.80234 C1093.78786,662.85464 1092.65452,662.24 1091.38,662.24 C1090.10548,662.24 1088.97214,662.85464 1088.26,663.80234 C1087.54786,662.85464 1086.41452,662.24 1085.14,662.24 C1083.86548,662.24 1082.73214,662.85464 1082.02,663.80234 C1081.30786,662.85464 1080.17452,662.24 1078.9,662.24 Z M1083.58,693.44 C1081.42954,693.44 1079.68,691.69046 1079.68,689.54 C1079.68,687.38954 1081.42954,685.64 1083.58,685.64 C1085.73046,685.64 1087.48,687.38954 1087.48,689.54 C1087.48,691.69046 1085.73046,693.44 1083.58,693.44 Z M1105.42,693.44 C1103.26954,693.44 1101.52,691.69046 1101.52,689.54 C1101.52,687.38954 1103.26954,685.64 1105.42,685.64 C1107.57046,685.64 1109.32,687.38954 1109.32,689.54 C1109.32,691.69046 1107.57046,693.44 1105.42,693.44 Z M1112.44,688.76 L1110.8176,688.76 C1110.43696,686.11814 1108.16482,684.08 1105.42,684.08 C1102.67518,684.08 1100.40304,686.11814 1100.0224,688.76 L1088.9776,688.76 C1088.59696,686.11814 1086.3256,684.08 1083.58,684.08 C1080.8344,684.08 1078.56304,686.11814 1078.1824,688.76 L1076.56,688.76 L1076.56,680.96 L1112.44,680.96 L1112.44,688.76 Z M1082.8,679.4 L1082.8,666.14 C1082.8,664.84988 1083.84988,663.8 1085.14,663.8 C1086.43012,663.8 1087.48,664.84988 1087.48,666.14 C1087.48,666.57056 1087.82944,666.92 1088.26,666.92 C1088.69056,666.92 1089.04,666.57056 1089.04,666.14 C1089.04,664.84988 1090.08988,663.8 1091.38,663.8 C1092.67012,663.8 1093.72,664.84988 1093.72,666.14 C1093.72,666.57056 1094.06944,666.92 1094.5,666.92 C1094.93056,666.92 1095.28,666.57056 1095.28,666.14 C1095.28,664.84988 1096.32988,663.8 1097.62,663.8 C1098.91012,663.8 1099.96,664.84988 1099.96,666.14 C1099.96,666.57056 1100.30866,666.92 1100.74,666.92 C1101.17134,666.92 1101.52,666.57056 1101.52,666.14 C1101.52,664.84988 1102.56988,663.8 1103.86,663.8 C1105.15012,663.8 1106.2,664.84988 1106.2,666.14 L1106.2,679.4 L1082.8,679.4 Z" id="ready"></path>
        </g>
    </g>
</svg>