<?xml version="1.0" encoding="UTF-8"?>
<svg width="34px" height="34px" viewBox="0 0 34 34" version="1.1" xmlns="http://www.w3.org/2000/svg" xmlns:xlink="http://www.w3.org/1999/xlink">
    <!-- Generator: Sketch 47 (45396) - http://www.bohemiancoding.com/sketch -->
    <title>search</title>
    <desc>Created with Sketch.</desc>
    <defs></defs>
    <g id="Page-1" stroke="none" stroke-width="1" fill="none" fill-rule="evenodd">
        <g id="Desktop" transform="translate(-853.000000, -349.000000)" fill-rule="nonzero" fill="#8C9F87">
            <g id="search" transform="translate(853.000000, 349.000000)">
                <path d="M13.7882952,0.361431333 C6.1841679,0.361431333 0,6.44246467 0,13.9199276 C0,21.3973408 6.1841633,27.4784148 13.7882952,27.4784148 C16.4321167,27.4784148 18.8981367,26.7462245 20.9984269,25.472911 L28.5101753,32.873563 C29.7592571,34.1018319 31.8141022,34.1018319 33.0631886,32.873563 C34.3122705,31.6452941 34.3122705,29.6247453 33.0631886,28.3964312 L25.5514402,21.0098754 C26.8399207,18.9482126 27.576595,16.5127288 27.576595,13.9199276 C27.576595,6.44246467 21.3924271,0.361431333 13.7882952,0.361431333 L13.7882952,0.361431333 Z M13.7882952,2.16923113 C20.3988507,2.16923113 25.7381553,7.41948646 25.7381553,13.9199276 C25.7381553,20.420319 20.3988461,25.6706195 13.7882952,25.6706195 C7.17774435,25.6706195 1.83843967,20.420319 1.83843967,13.9199276 C1.83843967,7.41948646 7.17773976,2.16923113 13.7882952,2.16923113 Z M24.4742284,22.5069665 L31.7705362,29.6675761 C32.3219151,30.2097385 32.3219151,31.0461595 31.7705362,31.5883671 C31.2191527,32.1305295 30.3685738,32.1305295 29.8171903,31.5883671 L22.5208871,24.4136612 C23.2297549,23.8415895 23.8934487,23.2048198 24.4742284,22.5069665 L24.4742284,22.5069665 Z"></path>
            </g>
        </g>
    </g>
</svg>