<?xml version="1.0" encoding="UTF-8"?>
<svg width="34px" height="34px" viewBox="0 0 34 34" version="1.1" xmlns="http://www.w3.org/2000/svg" xmlns:xlink="http://www.w3.org/1999/xlink">
    <!-- Generator: Sketch 47 (45396) - http://www.bohemiancoding.com/sketch -->
    <title>storage</title>
    <desc>Created with Sketch.</desc>
    <defs></defs>
    <g id="Page-1" stroke="none" stroke-width="1" fill="none" fill-rule="evenodd">
        <g id="Desktop" transform="translate(-1077.000000, -503.000000)" stroke="#8C9F87" stroke-width="0.7" fill="#8C9F87" fill-rule="nonzero">
            <g id="storage" transform="translate(1078.000000, 504.000000)">
                <path d="M31.6521739,0 L0.347826087,0 C0.139130435,0 0,0.130726583 0,0.326816458 L0,4.54274876 C0,4.73883863 0.139130435,4.86956522 0.347826087,4.86956522 L31.6521739,4.86956522 C31.8608696,4.86956522 32,4.73883863 32,4.54274876 L32,0.326816458 C32,0.130726583 31.8608696,0 31.6521739,0 Z M31.3043478,4.2159323 L0.695652174,4.2159323 L0.695652174,0.653632915 L31.3043478,0.653632915 L31.3043478,4.2159323 Z" id="Shape"></path>
                <path d="M29.5919627,6.26086957 L2.43868294,6.26086957 C2.22764709,6.26086957 2.08695652,6.4 2.08695652,6.60869565 L2.08695652,31.6521739 C2.08695652,31.8608696 2.22764709,32 2.43868294,32 L29.55679,32 C29.7678259,32 29.9085164,31.8608696 29.9085164,31.6521739 L29.9085164,6.60869565 C29.9436891,6.43478261 29.7678259,6.26086957 29.5919627,6.26086957 Z M29.2402362,31.3043478 L2.79040936,31.3043478 L2.79040936,6.95652174 L29.2050636,6.95652174 L29.2050636,31.3043478 L29.2402362,31.3043478 Z" id="Shape"></path>
                <path d="M8.00740056,15.3043478 L23.9925994,15.3043478 C24.2057354,15.3043478 24.3478261,15.1604198 24.3478261,14.9445277 L24.3478261,11.4902549 C24.3478261,11.2743628 24.2057354,11.1304348 23.9925994,11.1304348 L8.00740056,11.1304348 C7.79426457,11.1304348 7.65217391,11.2743628 7.65217391,11.4902549 L7.65217391,14.9445277 C7.65217391,15.1244378 7.79426457,15.3043478 8.00740056,15.3043478 Z M8.3626272,11.814093 L23.6373728,11.814093 L23.6373728,14.5487256 L8.3626272,14.5487256 L8.3626272,11.814093 Z" id="Shape"></path>
            </g>
        </g>
    </g>
</svg>