<?xml version="1.0" encoding="UTF-8"?>
<svg width="267px" height="200px" viewBox="0 0 267 200" version="1.1" xmlns="http://www.w3.org/2000/svg" xmlns:xlink="http://www.w3.org/1999/xlink">
    <!-- Generator: Sketch 47 (45396) - http://www.bohemiancoding.com/sketch -->
    <title>logo</title>
    <desc>Created with Sketch.</desc>
    <defs></defs>
    <g id="Page-1" stroke="none" stroke-width="1" fill="none" fill-rule="evenodd">
        <g id="Desktop" transform="translate(-85.000000, -72.000000)">
            <g id="Group-5" transform="translate(85.000000, 72.000000)">
                <g id="ЛОГОТИП_монохром">
                    <g id="logo">
                        <circle id="Oval-2" fill="#251414" cx="133" cy="100" r="100"></circle>
                        <path d="M128.255357,183.936765 C133.817857,179.392505 161.630357,158.26568 186.025893,166.556963 C171.563393,177.558856 153.445536,184.096213 133.897321,184.096213 C131.990179,184.175937 130.083036,184.096213 128.255357,183.936765 Z" id="Shape" fill="#B5C07B"></path>
                        <path d="M128.255357,183.936765 C133.817857,179.392505 161.630357,158.26568 186.025893,166.556963" id="Shape" stroke="#F9F6F3" stroke-linecap="round" stroke-linejoin="round"></path>
                        <path d="M176.251786,173.014596 C154.955357,159.780434 117.209821,143.676213 89.3973214,171.818738 C102.429464,179.631677 117.607143,184.175937 133.897321,184.175937 C149.233929,184.175937 163.696429,180.11002 176.251786,173.014596 Z" id="Shape" fill="#8C9F87"></path>
                        <path d="M176.251786,173.014596 C154.955357,159.780434 117.209821,143.676213 89.3973214,171.818738" id="Shape" stroke="#F9F6F3" stroke-linecap="round" stroke-linejoin="round"></path>
                        <path d="M135.089286,184.175937 C130.241964,180.189744 104.257143,160.179053 80.4973214,165.68 C95.1982143,177.239961 113.713393,184.175937 133.897321,184.175937 C134.294643,184.175937 134.691964,184.175937 135.089286,184.175937 Z" id="Shape" fill="#B5C07B"></path>
                        <path d="M135.089286,184.175937 C130.241964,180.189744 104.257143,160.179053 80.4973214,165.68" id="Shape" stroke="#F9F6F3" stroke-linecap="round" stroke-linejoin="round"></path>
                        <path d="M123.328571,35.4112032 C123.328571,35.4112032 111.170536,27.9968836 121.341964,18.4300197 C121.341964,18.4300197 135.804464,24.0106903 123.328571,35.4112032 Z" id="Shape" fill="#B5C07B"></path>
                        <path d="M123.328571,35.4112032 C123.328571,35.4112032 111.170536,27.9968836 121.341964,18.4300197 C121.341964,18.4300197 135.804464,24.0106903 123.328571,35.4112032 Z" id="Shape" stroke="#F9F6F3" stroke-width="1.19308" stroke-linecap="round" stroke-linejoin="round"></path>
                        <path d="M161.709821,41.5499408 C161.709821,41.5499408 149.949107,36.6070611 155.988393,20.662288 C155.988393,20.662288 177.205357,27.3590927 161.709821,41.5499408 Z" id="Shape" fill="#B5C07B"></path>
                        <path d="M161.709821,41.5499408 C161.709821,41.5499408 149.949107,36.6070611 155.988393,20.662288 C155.988393,20.662288 177.205357,27.3590927 161.709821,41.5499408 Z" id="Shape" stroke="#F9F6F3" stroke-width="1.19308" stroke-linecap="round" stroke-linejoin="round"></path>
                        <path d="M152.094643,53.2693491 C152.094643,53.2693491 132.94375,50.8776331 138.903571,31.1061144 C138.903571,31.1061144 160.676786,29.9102564 152.094643,53.2693491 Z" id="Shape" fill="#B5C07B"></path>
                        <path d="M152.094643,53.2693491 C152.094643,53.2693491 132.94375,50.8776331 138.903571,31.1061144 C138.903571,31.1061144 160.676786,29.9102564 152.094643,53.2693491 Z" id="Shape" stroke="#F9F6F3" stroke-width="1.19308" stroke-linecap="round" stroke-linejoin="round"></path>
                        <path d="M166.000893,49.9209467 C166.000893,49.9209467 172.119643,33.4978304 190.873214,47.7684024 C190.873214,47.7684024 179.509821,61.7998028 166.000893,49.9209467 Z" id="Shape" fill="#B5C07B"></path>
                        <path d="M166.000893,49.9209467 C166.000893,49.9209467 172.119643,33.4978304 190.873214,47.7684024 C190.873214,47.7684024 179.509821,61.7998028 166.000893,49.9209467 Z" id="Shape" stroke="#F9F6F3" stroke-width="1.19308" stroke-linecap="round" stroke-linejoin="round"></path>
                        <path d="M186.502679,74.715069 C186.502679,74.715069 176.966964,59.9661538 199.534821,53.349073 C199.534821,53.349073 204.064286,70.8085996 186.502679,74.715069 Z" id="Shape" fill="#B5C07B"></path>
                        <path d="M186.502679,74.715069 C186.502679,74.715069 176.966964,59.9661538 199.534821,53.349073 C199.534821,53.349073 204.064286,70.8085996 186.502679,74.715069 Z" id="Shape" stroke="#F9F6F3" stroke-width="1.19308" stroke-linecap="round" stroke-linejoin="round"></path>
                        <ellipse id="Oval" stroke="#F9F6F3" stroke-width="1.19308" stroke-linecap="round" stroke-linejoin="round" cx="133.817857" cy="97.3566469" rx="86.4571429" ry="86.7395661"></ellipse>
                        <ellipse id="Oval" stroke="#F9F6F3" stroke-width="1.19308" stroke-linecap="round" stroke-linejoin="round" cx="133.817857" cy="97.3566469" rx="92.89375" ry="93.1971992"></ellipse>
                        <path d="M145.975893,94.7257594 C145.975893,94.7257594 133.817857,73.1205917 150.028571,60.7633925 C164.967857,49.3628797 162.425,32.3019724 161.074107,30.2291519" id="Shape" stroke="#F9F6F3" stroke-width="1.19308" stroke-linecap="round" stroke-linejoin="round"></path>
                        <path d="M151.85625,59.2486391 C151.85625,59.2486391 154.319643,49.4426036 146.29375,41.6296647" id="Shape" stroke="#F9F6F3" stroke-width="1.19308" stroke-linecap="round" stroke-linejoin="round"></path>
                        <path d="M114.110714,44.1808284 C114.110714,44.1808284 101.078571,58.5311243 88.44375,42.1080079 C88.3642857,42.1080079 100.045536,23.612071 114.110714,44.1808284 Z" id="Shape" fill="#B5C07B"></path>
                        <path d="M114.110714,44.1808284 C114.110714,44.1808284 101.078571,58.5311243 88.44375,42.1080079 C88.3642857,42.1080079 100.045536,23.612071 114.110714,44.1808284 Z" id="Shape" stroke="#F9F6F3" stroke-width="1.19308" stroke-linecap="round" stroke-linejoin="round"></path>
                        <path d="M118.799107,47.7684024 C118.799107,47.7684024 112.283036,40.1149112 101.2375,42.1080079" id="Shape" stroke="#F9F6F3" stroke-width="1.19308" stroke-linecap="round" stroke-linejoin="round"></path>
                        <path d="M156.067857,54.7043787 C156.067857,54.7043787 163.616964,48.565641 176.410714,48.565641" id="Shape" stroke="#F9F6F3" stroke-width="1.19308" stroke-linecap="round" stroke-linejoin="round"></path>
                        <path d="M184.436607,85.5575148 C184.436607,85.5575148 184.039286,75.8312032 191.588393,65.5468245" id="Shape" stroke="#F9F6F3" stroke-width="1.19308" stroke-linecap="round" stroke-linejoin="round"></path>
                        <path d="M166.954464,64.2712426 C168.066964,70.6491519 158.690179,68.815503 159.405357,62.6767653 C160.2,56.6177515 166.398214,56.8569231 170.291964,59.4080868 C176.251786,63.3145562 176.728571,70.6491519 173.152679,76.4689941 C171.642857,78.9404339 164.252679,85.2386193 161.550893,84.1224852" id="Shape" stroke="#F9F6F3" stroke-width="1.19308" stroke-linecap="round" stroke-linejoin="round"></path>
                        <path d="M125.633036,81.0929783 C129.208929,80.7740828 130.559821,75.6717554 130.559821,72.5625247 C130.559821,67.9385404 129.05,64.5104142 126.109821,61.0025641 C121.500893,55.4218935 114.825893,46.9711637 121.81875,40.5135306 C124.997321,37.6434714 130.241964,37.9623669 131.433929,42.5863511 C132.3875,46.0942012 128.334821,51.9937673 125.633036,47.8481262" id="Shape" stroke="#F9F6F3" stroke-width="1.19308" stroke-linecap="round" stroke-linejoin="round"></path>
                        <path d="M143.194643,69.6127416 C143.989286,65.7859961 145.499107,58.690572 138.108929,58.4514004 C133.579464,58.2919527 134.771429,66.1048915 138.188393,64.1117949" id="Shape" stroke="#F9F6F3" stroke-width="1.19308" stroke-linecap="round" stroke-linejoin="round"></path>
                        <polygon id="Shape" fill="#B5C07B" points="57.29375 71.2869428 58.4857143 67.4601972 61.5053571 65.0684813 65.3991071 64.032071 69.1339286 64.8293097 71.75625 67.5399211 72.4714286 69.9316371 72.4714286 72.0841815"></polygon>
                        <path d="M121.341964,41.0715976 C121.341964,41.0715976 125.235714,34.8531361 123.010714,27.2793688" id="Shape" stroke="#F9F6F3" stroke-width="1.19308" stroke-linecap="round" stroke-linejoin="round"></path>
                        <path d="M98.5357143,71.2072189 C98.5357143,71.2072189 86.3776786,63.7928994 96.5491071,54.2260355 C96.4696429,54.2260355 110.932143,59.8067061 98.5357143,71.2072189 Z" id="Shape" fill="#B5C07B"></path>
                        <path d="M98.5357143,71.2072189 C98.5357143,71.2072189 86.3776786,63.7928994 96.5491071,54.2260355 C96.4696429,54.2260355 110.932143,59.8067061 98.5357143,71.2072189 Z" id="Shape" stroke="#F9F6F3" stroke-width="1.19308" stroke-linecap="round" stroke-linejoin="round"></path>
                        <path d="M96.4696429,76.7878895 C96.4696429,76.7878895 100.363393,70.569428 98.1383929,62.9956607" id="Shape" stroke="#F9F6F3" stroke-width="1.19308" stroke-linecap="round" stroke-linejoin="round"></path>
                        <path d="M79.4642857,69.37357 C79.4642857,69.37357 95.9928571,59.3283629 82.1660714,46.4130966 C82.1660714,46.4130966 62.6178571,53.9868639 79.4642857,69.37357 Z" id="Shape" fill="#B5C07B"></path>
                        <path d="M79.4642857,69.37357 C79.4642857,69.37357 95.9928571,59.3283629 82.1660714,46.4130966 C82.1660714,46.4130966 62.6178571,53.9868639 79.4642857,69.37357 Z" id="Shape" stroke="#F9F6F3" stroke-width="1.19308" stroke-linecap="round" stroke-linejoin="round"></path>
                        <path d="M82.1660714,77.0270611 C82.1660714,77.0270611 76.9214286,68.6560552 79.9410714,58.3716765" id="Shape" stroke="#F9F6F3" stroke-width="1.19308" stroke-linecap="round" stroke-linejoin="round"></path>
                        <path d="M115.858929,77.8242998 C119.59375,77.5851282 122.375,71.2869428 121.81875,67.9385404 C121.2625,64.8293097 118.401786,59.8067061 114.984821,59.2486391 C111.329464,58.6108481 107.753571,61.082288 107.594643,64.8293097 C107.35625,70.9680473 116.335714,69.7721893 114.428571,65.8657199" id="Shape" stroke="#F9F6F3" stroke-width="1.19308" stroke-linecap="round" stroke-linejoin="round"></path>
                        <path d="M70.2464286,81.0929783 C65.0017857,83.2455227 56.4196429,76.0703748 57.3732143,70.1708087 C58.2473214,64.7495858 66.2732143,62.1186982 70.4053571,65.5468245 C73.5044643,68.177712 73.7428571,76.9473373 68.1803571,76.6284418 C65.2401786,76.4689941 62.3,68.8952268 65.08125,68.177712" id="Shape" stroke="#F9F6F3" stroke-width="1.19308" stroke-linecap="round" stroke-linejoin="round"></path>
                        <polygon id="Shape" fill="#F4EEE0" points="230.446429 149.336607 230.446429 82.3685602 267 82.3685602 258.338393 115.852584 267 149.336607"></polygon>
                        <polygon id="Shape" fill="#F4EEE0" points="37.26875 149.336607 37.26875 82.6077318 0.715178571 82.6077318 9.37678571 116.012032 0.715178571 149.336607"></polygon>
                        <rect id="Rectangle-path" fill="#F9F6F3" x="26.3026786" y="71.2869428" width="215.030357" height="66.8085996"></rect>
                        <polygon id="Shape" fill="#DAD1BD" points="241.889286 138.334714 230.446429 149.336607 230.446429 138.334714"></polygon>
                        <polygon id="Shape" fill="#DAD1BD" points="26.7 138.334714 37.26875 149.336607 37.26875 138.334714"></polygon>
                        <polygon id="Shape" fill="#F9F6F3" points="80.2589286 149.655503 79.54375 149.655503 79.54375 147.981302 78.1133929 147.981302 78.1133929 149.655503 77.3982143 149.655503 77.3982143 145.749034 78.1133929 145.749034 78.1133929 147.343511 79.54375 147.343511 79.54375 145.749034 80.2589286 145.749034"></polygon>
                        <path d="M86.6160714,149.655503 L85.8214286,149.655503 L85.5035714,148.698817 L83.99375,148.698817 L83.6758929,149.655503 L83.0401786,149.655503 L84.3116071,145.749034 L85.1857143,145.749034 L86.6160714,149.655503 L86.6160714,149.655503 Z M85.3446429,148.14075 L84.7883929,146.386824 L84.2321429,148.14075 L85.3446429,148.14075 Z" id="Shape" fill="#F9F6F3"></path>
                        <polygon id="Shape" fill="#F9F6F3" points="90.5098214 149.655503 89.7151786 149.655503 89.7151786 146.307101 88.6821429 146.307101 88.6821429 145.749034 91.5428571 145.749034 91.5428571 146.307101 90.5098214 146.307101"></polygon>
                        <path d="M95.4366071,148.539369 L94.00625,145.749034 L94.8008929,145.749034 L95.7544643,147.74213 L96.5491071,145.749034 L97.1848214,145.749034 L95.9928571,148.698817 C95.8339286,149.097436 95.675,149.336607 95.5160714,149.496055 C95.3571429,149.655503 95.11875,149.735227 94.8008929,149.735227 L94.5625,149.735227 L94.5625,149.097436 L94.8008929,149.097436 C94.9598214,149.097436 95.11875,149.097436 95.1982143,149.017712 C95.2776786,148.937988 95.3571429,148.858264 95.3571429,148.698817 L95.4366071,148.539369 Z" id="Shape" fill="#F9F6F3"></path>
                        <path d="M100.68125,149.655503 L99.9660714,149.655503 L99.9660714,145.749034 L101.555357,145.749034 C102.032143,145.749034 102.35,145.828757 102.588393,146.067929 C102.826786,146.307101 102.90625,146.546272 102.90625,146.865168 C102.90625,147.263787 102.747321,147.502959 102.508929,147.74213 C102.270536,147.981302 101.952679,148.061026 101.634821,148.061026 L100.68125,148.061026 L100.68125,149.655503 L100.68125,149.655503 Z M100.68125,147.502959 L101.555357,147.502959 C101.79375,147.502959 101.952679,147.423235 102.032143,147.343511 C102.111607,147.263787 102.191071,147.104339 102.191071,146.944892 C102.191071,146.785444 102.111607,146.625996 102.032143,146.546272 C101.952679,146.466548 101.714286,146.386824 101.475893,146.386824 L100.68125,146.386824 L100.68125,147.502959 Z" id="Shape" fill="#F9F6F3"></path>
                        <path d="M108.707143,149.655503 L107.991964,149.655503 L107.674107,148.698817 L106.164286,148.698817 L105.846429,149.655503 L105.210714,149.655503 L106.482143,145.749034 L107.35625,145.749034 L108.707143,149.655503 L108.707143,149.655503 Z M107.435714,148.14075 L106.879464,146.386824 L106.323214,148.14075 L107.435714,148.14075 Z" id="Shape" fill="#F9F6F3"></path>
                        <polygon id="Shape" fill="#F9F6F3" points="111.885714 149.655503 111.25 149.655503 112.521429 145.749034 113.395536 145.749034 114.5875 149.655503 113.872321 149.655503 112.839286 146.386824 112.839286 146.386824"></polygon>
                        <path d="M117.36875,149.655503 L117.36875,145.749034 L118.083929,145.749034 L118.083929,147.263787 L118.719643,147.263787 C119.116964,147.263787 119.355357,147.263787 119.59375,147.343511 C119.752679,147.423235 119.911607,147.582682 120.070536,147.74213 C120.229464,147.981302 120.229464,148.14075 120.229464,148.459645 C120.229464,148.77854 120.15,149.097436 119.911607,149.336607 C119.673214,149.575779 119.355357,149.655503 118.878571,149.655503 L117.36875,149.655503 L117.36875,149.655503 Z M118.083929,149.017712 L118.799107,149.017712 C119.275893,149.017712 119.434821,148.77854 119.434821,148.379921 C119.434821,147.981302 119.196429,147.74213 118.799107,147.74213 L118.083929,147.74213 L118.083929,149.017712 Z" id="Shape" fill="#F9F6F3"></path>
                        <polygon id="Shape" fill="#F9F6F3" points="126.030357 149.655503 125.315179 149.655503 125.315179 147.981302 123.805357 147.981302 123.805357 149.655503 123.090179 149.655503 123.090179 145.749034 123.805357 145.749034 123.805357 147.343511 125.315179 147.343511 125.315179 145.749034 126.030357 145.749034"></polygon>
                        <path d="M132.625893,149.655503 L132.625893,145.749034 L133.341071,145.749034 L133.341071,149.655503 L132.625893,149.655503 L132.625893,149.655503 Z M129.288393,149.655503 L129.288393,145.749034 L130.003571,145.749034 L130.003571,147.263787 L130.639286,147.263787 C131.036607,147.263787 131.275,147.263787 131.513393,147.343511 C131.672321,147.423235 131.83125,147.582682 131.990179,147.74213 C132.149107,147.981302 132.149107,148.14075 132.149107,148.459645 C132.149107,148.77854 132.069643,149.097436 131.83125,149.336607 C131.592857,149.575779 131.275,149.655503 130.798214,149.655503 L129.288393,149.655503 L129.288393,149.655503 Z M130.003571,149.017712 L130.71875,149.017712 C131.195536,149.017712 131.354464,148.77854 131.354464,148.379921 C131.354464,147.981302 131.116071,147.74213 130.71875,147.74213 L130.003571,147.74213 L130.003571,149.017712 Z" id="Shape" fill="#F9F6F3"></path>
                        <polygon id="Shape" fill="#F9F6F3" points="139.141964 149.655503 136.599107 149.655503 136.599107 145.749034 139.141964 145.749034 139.141964 146.307101 137.314286 146.307101 137.314286 147.343511 138.744643 147.343511 138.744643 147.981302 137.314286 147.981302 137.314286 149.017712 139.141964 149.017712"></polygon>
                        <polygon id="Shape" fill="#F9F6F3" points="146.214286 149.655503 146.214286 145.749034 148.995536 145.749034 148.995536 149.655503 148.280357 149.655503 148.280357 146.307101 146.929464 146.307101 146.929464 149.655503"></polygon>
                        <path d="M152.96875,149.655503 L152.253571,149.655503 L152.253571,145.749034 L153.842857,145.749034 C154.319643,145.749034 154.6375,145.828757 154.875893,146.067929 C155.114286,146.307101 155.19375,146.546272 155.19375,146.865168 C155.19375,147.263787 155.034821,147.502959 154.796429,147.74213 C154.558036,147.981302 154.240179,148.061026 153.922321,148.061026 L152.96875,148.061026 L152.96875,149.655503 L152.96875,149.655503 Z M152.96875,147.502959 L153.842857,147.502959 C154.08125,147.502959 154.240179,147.423235 154.319643,147.343511 C154.399107,147.263787 154.478571,147.104339 154.478571,146.944892 C154.478571,146.785444 154.399107,146.625996 154.319643,146.546272 C154.240179,146.466548 154.001786,146.386824 153.763393,146.386824 L152.96875,146.386824 L152.96875,147.502959 Z" id="Shape" fill="#F9F6F3"></path>
                        <path d="M159.564286,149.735227 C159.008036,149.735227 158.610714,149.575779 158.372321,149.17716 C158.054464,148.77854 157.975,148.300197 157.975,147.74213 C157.975,147.184063 158.133929,146.70572 158.451786,146.307101 C158.769643,145.908481 159.166964,145.749034 159.64375,145.749034 C160.120536,145.749034 160.517857,145.908481 160.835714,146.307101 C161.153571,146.70572 161.3125,147.184063 161.3125,147.74213 C161.3125,148.379921 161.153571,148.858264 160.835714,149.17716 C160.517857,149.575779 160.120536,149.735227 159.564286,149.735227 L159.564286,149.735227 Z M159.564286,149.17716 C159.802679,149.17716 160.041071,149.097436 160.2,148.858264 C160.358929,148.619093 160.438393,148.300197 160.438393,147.74213 C160.438393,147.263787 160.358929,146.944892 160.2,146.70572 C160.041071,146.466548 159.802679,146.307101 159.484821,146.307101 C158.849107,146.307101 158.610714,146.785444 158.610714,147.74213 C158.610714,148.220473 158.690179,148.539369 158.849107,148.858264 C159.0875,149.017712 159.325893,149.17716 159.564286,149.17716 Z" id="Shape" fill="#F9F6F3"></path>
                        <path d="M164.014286,149.017712 L165.047321,145.66931 L166.080357,145.66931 L167.033929,149.017712 L167.351786,149.017712 L167.351786,150.452742 L166.875,150.452742 L166.795536,149.655503 L164.332143,149.655503 L164.252679,150.452742 L163.775893,150.452742 L163.775893,149.017712 L164.014286,149.017712 L164.014286,149.017712 Z M164.65,149.017712 L166.31875,149.017712 L165.603571,146.386824 L165.365179,146.386824 L164.65,149.017712 Z" id="Shape" fill="#F9F6F3"></path>
                        <path d="M171.007143,148.539369 L169.576786,145.749034 L170.371429,145.749034 L171.325,147.74213 L172.119643,145.749034 L172.755357,145.749034 L171.563393,148.698817 C171.404464,149.097436 171.245536,149.336607 171.086607,149.496055 C170.927679,149.655503 170.689286,149.735227 170.371429,149.735227 L170.133036,149.735227 L170.133036,149.097436 L170.371429,149.097436 C170.530357,149.097436 170.689286,149.097436 170.76875,149.017712 C170.848214,148.937988 170.927679,148.858264 170.927679,148.698817 L171.007143,148.539369 Z" id="Shape" fill="#F9F6F3"></path>
                        <path d="M178.635714,149.655503 L177.841071,149.655503 L177.046429,147.662406 L176.251786,148.698817 L176.251786,149.655503 L175.536607,149.655503 L175.536607,145.749034 L176.251786,145.749034 L176.251786,147.821854 C176.33125,147.662406 176.410714,147.582682 176.410714,147.502959 L177.682143,145.749034 L178.397321,145.749034 L177.44375,147.024615 L178.635714,149.655503 Z" id="Shape" fill="#F9F6F3"></path>
                        <polygon id="Shape" fill="#F9F6F3" points="182.847321 149.655503 182.132143 149.655503 182.132143 146.307101 181.099107 146.307101 181.099107 145.749034 183.880357 145.749034 183.880357 146.307101 182.847321 146.307101"></polygon>
                        <path d="M190.078571,149.655503 L190.078571,145.749034 L190.79375,145.749034 L190.79375,149.655503 L190.078571,149.655503 L190.078571,149.655503 Z M186.741071,149.655503 L186.741071,145.749034 L187.45625,145.749034 L187.45625,147.263787 L188.091964,147.263787 C188.489286,147.263787 188.727679,147.263787 188.966071,147.343511 C189.125,147.423235 189.283929,147.582682 189.442857,147.74213 C189.601786,147.981302 189.601786,148.14075 189.601786,148.459645 C189.601786,148.77854 189.522321,149.097436 189.283929,149.336607 C189.045536,149.575779 188.727679,149.655503 188.250893,149.655503 L186.741071,149.655503 L186.741071,149.655503 Z M187.45625,149.017712 L188.171429,149.017712 C188.648214,149.017712 188.807143,148.77854 188.807143,148.379921 C188.807143,147.981302 188.56875,147.74213 188.171429,147.74213 L187.45625,147.74213 L187.45625,149.017712 Z" id="Shape" fill="#F9F6F3"></path>
                        <path d="M55.625,90.6598422 L58.8830357,90.6598422 L57.29375,85.7169625 L57.29375,85.7169625 L55.625,90.6598422 L55.625,90.6598422 Z M57.29375,82.2888363 C57.85,82.2888363 58.3267857,82.448284 58.6446429,82.7671795 C59.0419643,83.086075 59.2803571,83.5644181 59.51875,84.2022091 L62.85625,93.0515582 C62.9357143,93.3704536 63.0946429,93.6893491 63.1741071,94.0082446 C63.2535714,94.32714 63.3330357,94.6460355 63.3330357,94.964931 C63.3330357,95.3635503 63.1741071,95.6824458 62.9357143,95.9216174 C62.6973214,96.160789 62.3,96.2405128 61.8232143,96.2405128 C61.3464286,96.2405128 61.0285714,96.0810651 60.7901786,95.8418935 C60.5517857,95.6027219 60.3928571,95.2041026 60.2339286,94.7257594 L59.8366071,93.5299014 L54.7508929,93.5299014 L54.3535714,94.6460355 C54.1946429,95.2838264 53.95625,95.6824458 53.7178571,95.9216174 C53.4794643,96.160789 53.1616071,96.2405128 52.7642857,96.2405128 C52.2875,96.2405128 51.9696429,96.160789 51.6517857,95.9216174 C51.4133929,95.6824458 51.2544643,95.3635503 51.2544643,94.964931 C51.2544643,94.6460355 51.3339286,94.32714 51.4133929,94.0082446 C51.4928571,93.6893491 51.6517857,93.3704536 51.73125,93.0515582 L55.06875,84.2022091 C55.3071429,83.5644181 55.625,83.086075 55.9428571,82.7671795 C56.2607143,82.448284 56.7375,82.2888363 57.29375,82.2888363 Z" id="Shape" fill="#5C4E4E"></path>
                        <path d="M86.6160714,82.2888363 C87.2517857,82.2888363 87.8875,82.3685602 88.44375,82.5280079 C89,82.6874556 89.3973214,82.9266272 89.7946429,83.2455227 C90.1919643,83.5644181 90.4303571,83.9630375 90.66875,84.3616568 C90.9071429,84.84 90.9866071,85.3183432 90.9866071,85.8764103 C90.9866071,86.593925 90.8276786,87.231716 90.5098214,87.7100592 C90.1919643,88.2681262 89.7151786,88.5870217 89,88.9059172 C89.8741071,89.1450888 90.5892857,89.5437081 90.9866071,90.0220513 C91.3839286,90.5003945 91.6223214,91.2179093 91.6223214,92.0948718 C91.6223214,92.7326627 91.4633929,93.3704536 91.225,93.9285207 C90.9866071,94.4865878 90.5892857,94.8852071 90.1125,95.2838264 C89.6357143,95.6824458 89.0794643,95.9216174 88.44375,96.0810651 C87.8080357,96.2405128 87.0928571,96.3999606 86.2982143,96.3999606 C85.7419643,96.3999606 85.1857143,96.3202367 84.6294643,96.2405128 C84.0732143,96.160789 83.5964286,96.0013412 83.1196429,95.8418935 C82.6428571,95.6824458 82.325,95.4432742 82.0071429,95.1243787 C81.76875,94.8852071 81.6098214,94.4865878 81.6098214,94.1676923 C81.6098214,93.769073 81.76875,93.3704536 82.0071429,93.0515582 C82.2455357,92.7326627 82.6428571,92.573215 83.0401786,92.573215 C83.2785714,92.573215 83.5169643,92.6529389 83.6758929,92.7326627 C84.0732143,92.8921105 84.4705357,93.0515582 84.8678571,93.2110059 C85.2651786,93.3704536 85.7419643,93.3704536 86.21875,93.3704536 C86.8544643,93.3704536 87.33125,93.2907298 87.6491071,93.0515582 C87.9669643,92.8123866 88.1258929,92.4934911 88.1258929,92.0948718 C88.1258929,91.0584615 87.1723214,90.5801183 85.3446429,90.5801183 C84.7089286,90.5801183 84.2321429,90.5003945 83.9142857,90.2612229 C83.5964286,90.0220513 83.5169643,89.7031558 83.5169643,89.3045365 C83.5169643,88.8261933 83.6758929,88.427574 83.99375,88.1884024 C84.3116071,87.9492308 84.7089286,87.789783 85.2651786,87.789783 C85.9803571,87.789783 86.5366071,87.6303353 86.9339286,87.3911637 C87.33125,87.1519921 87.5696429,86.8330966 87.5696429,86.4344773 C87.5696429,86.035858 87.4107143,85.7169625 87.1723214,85.5575148 C86.9339286,85.3183432 86.5366071,85.2386193 86.1392857,85.2386193 C85.8214286,85.2386193 85.5830357,85.3183432 85.3446429,85.3980671 C85.10625,85.4777909 84.9473214,85.5575148 84.7089286,85.6372387 C84.4705357,85.7169625 84.3116071,85.7966864 84.1526786,85.8764103 C83.99375,85.9561341 83.7553571,86.035858 83.5169643,86.035858 C83.1196429,86.035858 82.8017857,85.8764103 82.5633929,85.6372387 C82.325,85.3980671 82.1660714,84.9994477 82.1660714,84.6008284 C82.1660714,84.2819329 82.2455357,84.0427613 82.4839286,83.7238659 C82.7223214,83.4846943 82.9607143,83.2455227 83.3580357,83.0063511 C83.7553571,82.7671795 84.2321429,82.6077318 84.7089286,82.5280079 C85.3446429,82.3685602 85.9803571,82.2888363 86.6160714,82.2888363 Z" id="Shape" fill="#5C4E4E"></path>
                        <path d="M118.083929,82.6077318 C118.560714,82.6077318 118.958036,82.7671795 119.196429,83.0063511 C119.514286,83.2455227 119.59375,83.644142 119.59375,84.0427613 C119.59375,84.5211045 119.434821,84.84 119.196429,85.0791716 C118.878571,85.3183432 118.560714,85.4777909 118.083929,85.4777909 L114.110714,85.4777909 L114.110714,87.6303353 L117.130357,87.6303353 C117.766071,87.6303353 118.401786,87.7100592 118.958036,87.9492308 C119.514286,88.1884024 119.991071,88.427574 120.308929,88.8261933 C120.70625,89.2248126 121.024107,89.623432 121.183036,90.1017751 C121.421429,90.5801183 121.500893,91.1381854 121.500893,91.7759763 C121.500893,92.4137673 121.421429,93.0515582 121.183036,93.6096252 C120.944643,94.1676923 120.626786,94.6460355 120.229464,94.964931 C119.832143,95.3635503 119.355357,95.6027219 118.719643,95.8418935 C118.163393,96.0810651 117.527679,96.160789 116.8125,96.160789 L112.441964,96.160789 C112.044643,96.160789 111.647321,96.0013412 111.408929,95.7621696 C111.091071,95.4432742 110.932143,95.1243787 110.932143,94.7257594 L110.932143,84.2022091 C110.932143,83.8035897 111.091071,83.4049704 111.408929,83.1657988 C111.726786,82.8469034 112.044643,82.7671795 112.521429,82.7671795 L118.083929,82.7671795 L118.083929,82.6077318 Z M116.494643,93.3704536 C117.050893,93.3704536 117.448214,93.2110059 117.845536,92.9718343 C118.163393,92.7326627 118.322321,92.3340434 118.322321,91.8557002 C118.322321,91.2976331 118.163393,90.9787377 117.766071,90.7395661 C117.448214,90.5003945 116.971429,90.4206706 116.494643,90.4206706 L114.110714,90.4206706 L114.110714,93.3704536 L116.494643,93.3704536 L116.494643,93.3704536 Z" id="Shape" fill="#5C4E4E"></path>
                        <path d="M141.684821,82.448284 C142.002679,82.448284 142.241071,82.5280079 142.558929,82.6874556 C142.797321,82.8469034 143.115179,83.1657988 143.353571,83.7238659 L146.134821,89.3045365 L148.757143,83.644142 C148.836607,83.4049704 148.995536,83.1657988 149.154464,83.0063511 C149.313393,82.8469034 149.392857,82.7671795 149.551786,82.6874556 C149.710714,82.6077318 149.790179,82.5280079 149.949107,82.5280079 C150.108036,82.5280079 150.266964,82.5280079 150.425893,82.5280079 C150.823214,82.5280079 151.220536,82.6874556 151.458929,82.9266272 C151.776786,83.2455227 151.935714,83.5644181 151.935714,83.9630375 C151.935714,84.1224852 151.935714,84.3616568 151.85625,84.5211045 C151.776786,84.7602761 151.697321,84.9197239 151.617857,85.0791716 L148.280357,92.0948718 C147.883036,92.8921105 147.485714,93.6096252 147.088393,94.0879684 C146.691071,94.6460355 146.29375,95.0446548 145.896429,95.3635503 C145.499107,95.6824458 145.022321,95.8418935 144.545536,96.0013412 C144.06875,96.0810651 143.5125,96.160789 142.876786,96.160789 C142.161607,96.160789 141.605357,96.0013412 141.128571,95.7621696 C140.651786,95.522998 140.492857,95.1243787 140.492857,94.7257594 C140.492857,94.32714 140.572321,93.9285207 140.810714,93.6096252 C141.049107,93.2907298 141.2875,93.1312821 141.684821,93.1312821 C141.84375,93.1312821 142.002679,93.1312821 142.320536,93.2110059 C142.558929,93.2907298 142.876786,93.2907298 143.115179,93.2907298 C143.433036,93.2907298 143.750893,93.2110059 143.989286,93.1312821 C144.227679,93.0515582 144.466071,92.8123866 144.625,92.4137673 L140.572321,84.9994477 C140.492857,84.84 140.413393,84.6805523 140.333929,84.4413807 C140.254464,84.2022091 140.254464,84.0427613 140.254464,83.8035897 C140.254464,83.4049704 140.413393,83.0063511 140.73125,82.7671795 C140.810714,82.6077318 141.208036,82.448284 141.684821,82.448284 Z" id="Shape" fill="#5C4E4E"></path>
                        <path d="M172.119643,82.448284 C172.596429,82.448284 172.99375,82.6077318 173.232143,82.8469034 C173.55,83.086075 173.629464,83.4846943 173.629464,84.0427613 L173.629464,87.8695069 L177.920536,83.3252465 C178.238393,83.0063511 178.476786,82.7671795 178.635714,82.6874556 C178.874107,82.5280079 179.1125,82.5280079 179.350893,82.5280079 C179.509821,82.5280079 179.748214,82.6077318 179.907143,82.6874556 C180.066071,82.7671795 180.225,82.8469034 180.383929,83.0063511 C180.542857,83.1657988 180.622321,83.3252465 180.78125,83.4846943 C180.860714,83.644142 180.940179,83.8833136 180.940179,84.0427613 C180.940179,84.2819329 180.860714,84.5211045 180.701786,84.7602761 C180.542857,84.9994477 180.463393,85.1588955 180.304464,85.3183432 L176.569643,88.985641 L181.019643,93.769073 C181.3375,94.0879684 181.496429,94.4865878 181.496429,94.8852071 C181.496429,95.3635503 181.3375,95.6824458 181.019643,96.0013412 C180.701786,96.3202367 180.304464,96.3999606 179.827679,96.3999606 C179.748214,96.3999606 179.589286,96.3999606 179.509821,96.3999606 C179.430357,96.3999606 179.271429,96.3202367 179.1125,96.2405128 C178.953571,96.160789 178.794643,96.0013412 178.635714,95.8418935 C178.397321,95.6824458 178.238393,95.4432742 177.920536,95.1243787 L173.55,90.2612229 L173.55,94.8054832 C173.55,95.2838264 173.391071,95.6824458 173.152679,96.0013412 C172.834821,96.3202367 172.516964,96.3999606 172.040179,96.3999606 C171.563393,96.3999606 171.166071,96.2405128 170.927679,96.0013412 C170.609821,95.7621696 170.530357,95.3635503 170.530357,94.8054832 L170.530357,84.2022091 C170.530357,83.7238659 170.689286,83.3252465 170.927679,83.0063511 C171.325,82.6077318 171.722321,82.448284 172.119643,82.448284 Z" id="Shape" fill="#5C4E4E"></path>
                        <path d="M205.017857,90.5003945 L208.275893,90.5003945 L206.686607,85.5575148 L206.686607,85.5575148 L205.017857,90.5003945 L205.017857,90.5003945 Z M206.686607,82.1293886 C207.242857,82.1293886 207.719643,82.2888363 208.0375,82.6077318 C208.434821,82.9266272 208.673214,83.4049704 208.911607,84.0427613 L212.249107,92.8921105 C212.328571,93.2110059 212.4875,93.5299014 212.566964,93.8487968 C212.646429,94.1676923 212.725893,94.4865878 212.725893,94.8054832 C212.725893,95.2041026 212.566964,95.522998 212.328571,95.7621696 C212.090179,96.0013412 211.692857,96.0810651 211.216071,96.0810651 C210.739286,96.0810651 210.421429,95.9216174 210.183036,95.6824458 C209.944643,95.4432742 209.785714,95.0446548 209.626786,94.5663116 L209.229464,93.3704536 L204.14375,93.3704536 L203.746429,94.4865878 C203.5875,95.1243787 203.349107,95.522998 203.110714,95.7621696 C202.872321,96.0013412 202.554464,96.0810651 202.157143,96.0810651 C201.680357,96.0810651 201.3625,96.0013412 201.044643,95.7621696 C200.80625,95.522998 200.647321,95.2041026 200.647321,94.8054832 C200.647321,94.4865878 200.726786,94.1676923 200.80625,93.8487968 C200.885714,93.5299014 201.044643,93.2110059 201.124107,92.8921105 L204.461607,84.0427613 C204.7,83.4049704 205.017857,82.9266272 205.335714,82.6077318 C205.653571,82.2888363 206.130357,82.1293886 206.686607,82.1293886 Z" id="Shape" fill="#5C4E4E"></path>
                        <path d="M64.3660714,102.77787 C65.1607143,102.77787 65.8758929,103.017041 66.3526786,103.575108 C66.9089286,104.053452 67.1473214,104.85069 67.1473214,105.887101 L67.1473214,106.524892 C70.5642857,106.923511 73.1071429,108.039645 74.8553571,109.713846 C76.6035714,111.467771 77.4776786,113.620316 77.4776786,116.251203 C77.4776786,118.882091 76.6035714,121.114359 74.8553571,122.78856 C73.1071429,124.542485 70.5642857,125.578895 67.1473214,125.977515 L67.1473214,126.455858 C67.1473214,127.651716 66.9089286,128.448955 66.3526786,128.927298 C65.7964286,129.405641 65.1607143,129.644813 64.3660714,129.644813 C63.5714286,129.644813 62.9357143,129.405641 62.3794643,128.927298 C61.8232143,128.448955 61.5848214,127.651716 61.5848214,126.455858 L61.5848214,125.977515 C58.2473214,125.578895 55.7044643,124.462761 53.8767857,122.78856 C52.1285714,121.114359 51.175,118.882091 51.175,116.171479 C51.175,113.540592 52.0491071,111.308323 53.8767857,109.634122 C55.625,107.959921 58.2473214,106.843787 61.5848214,106.445168 L61.5848214,105.807377 C61.5848214,104.770966 61.8232143,103.973728 62.3794643,103.495385 C62.9357143,103.017041 63.5714286,102.77787 64.3660714,102.77787 L64.3660714,102.77787 Z M57.3732143,116.171479 C57.3732143,117.367337 57.7705357,118.324024 58.4857143,119.121262 C59.2008929,119.838777 60.2339286,120.396844 61.5848214,120.636016 L61.5848214,111.786667 C60.2339286,112.025838 59.2008929,112.583905 58.4857143,113.381144 C57.7705357,114.098659 57.3732143,115.055345 57.3732143,116.171479 L57.3732143,116.171479 Z M67.1473214,120.636016 C68.4982143,120.396844 69.53125,119.838777 70.2464286,119.041538 C70.9616071,118.2443 71.3589286,117.287613 71.3589286,116.171479 C71.3589286,115.055345 70.9616071,114.098659 70.2464286,113.30142 C69.53125,112.504181 68.4982143,112.025838 67.1473214,111.706943 L67.1473214,120.636016 Z" id="Shape" fill="#B5C07B"></path>
                        <path d="M100.840179,103.654832 C101.634821,103.654832 102.270536,103.894004 102.826786,104.372347 C103.383036,104.85069 103.621429,105.488481 103.621429,106.28572 C103.621429,107.162682 103.383036,107.800473 102.826786,108.278817 C102.270536,108.75716 101.634821,108.996331 100.840179,108.996331 L94.8008929,108.996331 L94.8008929,113.540592 L100.283929,113.540592 C101.078571,113.540592 101.714286,113.779763 102.270536,114.258107 C102.826786,114.73645 103.065179,115.374241 103.065179,116.171479 C103.065179,116.968718 102.826786,117.686233 102.270536,118.084852 C101.79375,118.563195 101.078571,118.802367 100.283929,118.802367 L94.8008929,118.802367 L94.8008929,123.506075 L100.999107,123.506075 C101.79375,123.506075 102.508929,123.745247 102.985714,124.22359 C103.541964,124.701933 103.780357,125.339724 103.780357,126.216686 C103.780357,127.013925 103.541964,127.651716 102.985714,128.130059 C102.429464,128.608402 101.79375,128.847574 100.999107,128.847574 L91.8607143,128.847574 C91.1455357,128.847574 90.4303571,128.608402 89.8741071,128.050335 C89.3178571,127.492268 89.0794643,126.854477 89.0794643,126.057239 L89.0794643,106.445168 C89.0794643,105.647929 89.3178571,105.010138 89.8741071,104.452071 C90.4303571,103.894004 91.0660714,103.654832 91.8607143,103.654832 L100.840179,103.654832 L100.840179,103.654832 Z" id="Shape" fill="#B5C07B"></path>
                        <path d="M125.315179,103.654832 C126.348214,103.654832 127.38125,103.81428 128.414286,104.212899 C129.447321,104.611519 130.321429,105.089862 131.116071,105.807377 C131.910714,106.524892 132.546429,107.401854 133.023214,108.438264 C133.5,109.474675 133.738393,110.670533 133.738393,112.025838 C133.738393,113.381144 133.579464,114.656726 133.182143,115.77286 C132.784821,116.888994 132.228571,117.765957 131.513393,118.483471 C130.798214,119.200986 129.924107,119.838777 128.891071,120.237396 C127.858036,120.636016 126.745536,120.875187 125.474107,120.875187 L120.944643,120.875187 L120.944643,126.29641 C120.944643,127.253097 120.70625,127.970611 120.15,128.448955 C119.59375,129.007022 118.958036,129.246193 118.083929,129.246193 C117.209821,129.246193 116.574107,129.007022 116.017857,128.448955 C115.461607,127.890888 115.223214,127.173373 115.223214,126.29641 L115.223214,106.604615 C115.223214,105.807377 115.461607,105.169586 116.017857,104.611519 C116.574107,104.053452 117.209821,103.81428 118.004464,103.81428 L125.315179,103.81428 L125.315179,103.654832 Z M124.123214,115.693136 C125.235714,115.693136 126.109821,115.374241 126.825,114.656726 C127.540179,114.018935 127.858036,113.141972 127.858036,112.26501 C127.858036,111.148876 127.540179,110.271913 126.825,109.713846 C126.109821,109.155779 125.235714,108.836884 124.202679,108.836884 L121.024107,108.836884 L121.024107,115.77286 L124.123214,115.77286 L124.123214,115.693136 Z" id="Shape" fill="#B5C07B"></path>
                        <path d="M151.617857,103.495385 C152.333036,103.495385 152.889286,103.575108 153.366071,103.81428 C153.842857,104.053452 154.240179,104.372347 154.558036,104.770966 C154.875893,105.169586 155.19375,105.727653 155.432143,106.365444 C155.670536,107.003235 155.988393,107.72075 156.226786,108.597712 L159.405357,118.403748 L159.484821,118.403748 L162.266071,109.713846 C162.583929,108.597712 162.98125,107.641026 163.219643,106.843787 C163.5375,106.046548 163.855357,105.408757 164.173214,104.930414 C164.491071,104.452071 164.888393,104.053452 165.365179,103.894004 C165.7625,103.654832 166.31875,103.575108 166.954464,103.575108 C168.066964,103.575108 169.020536,103.894004 169.65625,104.452071 C170.291964,105.010138 170.76875,106.046548 171.007143,107.561302 L173.788393,123.745247 C173.867857,124.462761 174.026786,125.020828 174.026786,125.499172 C174.10625,125.977515 174.10625,126.29641 174.10625,126.535582 C174.10625,127.253097 173.867857,127.890888 173.311607,128.448955 C172.834821,129.007022 172.119643,129.246193 171.325,129.246193 C170.2125,129.246193 169.417857,128.927298 168.941071,128.289507 C168.54375,127.651716 168.146429,126.615306 167.9875,125.26 L166.31875,114.33783 L166.239286,114.33783 L162.345536,126.934201 C162.107143,127.73144 161.709821,128.369231 161.233036,128.76785 C160.75625,129.166469 160.120536,129.325917 159.246429,129.325917 C158.372321,129.325917 157.657143,129.086746 157.180357,128.688126 C156.703571,128.289507 156.385714,127.651716 156.067857,126.774753 L152.174107,114.258107 L152.094643,114.258107 L150.425893,125.499172 C150.346429,126.29641 150.108036,127.013925 149.949107,127.492268 C149.710714,127.970611 149.472321,128.369231 149.154464,128.608402 C148.836607,128.847574 148.51875,129.007022 148.200893,129.086746 C147.883036,129.166469 147.485714,129.246193 147.088393,129.246193 C146.373214,129.246193 145.7375,129.007022 145.18125,128.448955 C144.625,127.890888 144.386607,127.253097 144.386607,126.535582 C144.386607,126.376134 144.386607,126.216686 144.386607,125.897791 C144.386607,125.658619 144.466071,125.26 144.545536,124.781657 C144.625,124.303314 144.704464,123.745247 144.863393,123.027732 C144.942857,122.310217 145.101786,121.433254 145.340179,120.396844 L147.565179,107.561302 C147.803571,106.046548 148.280357,105.010138 148.916071,104.452071 C149.790179,103.734556 150.584821,103.495385 151.617857,103.495385 Z" id="Shape" fill="#B5C07B"></path>
                        <path d="M188.807143,103.495385 C189.68125,103.495385 190.316964,103.734556 190.873214,104.292623 C191.429464,104.85069 191.667857,105.568205 191.667857,106.445168 L191.667857,112.982525 L196.674107,112.982525 C197.866071,112.982525 199.058036,113.141972 200.011607,113.540592 C201.044643,113.939211 201.91875,114.417554 202.633929,115.135069 C203.349107,115.852584 203.905357,116.649822 204.302679,117.606509 C204.7,118.563195 204.858929,119.599606 204.858929,120.795464 C204.858929,122.071045 204.620536,123.187179 204.223214,124.143866 C203.825893,125.180276 203.269643,125.977515 202.475,126.69503 C201.759821,127.412544 200.80625,127.970611 199.773214,128.369231 C198.740179,128.76785 197.548214,128.927298 196.197321,128.927298 L188.56875,128.927298 C187.853571,128.927298 187.138393,128.688126 186.582143,128.130059 C186.025893,127.571992 185.7875,126.934201 185.7875,126.136963 L185.7875,106.445168 C185.7875,105.488481 186.025893,104.770966 186.582143,104.292623 C187.297321,103.734556 188.0125,103.495385 188.807143,103.495385 L188.807143,103.495385 Z M209.785714,103.495385 C210.659821,103.495385 211.295536,103.734556 211.851786,104.292623 C212.408036,104.85069 212.646429,105.568205 212.646429,106.445168 L212.646429,126.216686 C212.646429,127.173373 212.408036,127.890888 211.851786,128.369231 C211.295536,128.927298 210.659821,129.166469 209.785714,129.166469 C208.911607,129.166469 208.275893,128.927298 207.719643,128.369231 C207.163393,127.811164 206.925,127.093649 206.925,126.216686 L206.925,106.445168 C206.925,105.488481 207.163393,104.770966 207.719643,104.292623 C208.275893,103.734556 208.991071,103.495385 209.785714,103.495385 L209.785714,103.495385 Z M195.641071,123.82497 C196.594643,123.82497 197.46875,123.585799 198.025,123.107456 C198.660714,122.629112 198.978571,121.911598 198.978571,121.034635 C198.978571,120.077949 198.660714,119.360434 198.025,118.882091 C197.389286,118.483471 196.594643,118.2443 195.641071,118.2443 L191.667857,118.2443 L191.667857,123.745247 L195.641071,123.745247 L195.641071,123.82497 Z" id="Shape" fill="#B5C07B"></path>
                    </g>
                </g>
            </g>
        </g>
    </g>
</svg>